<?xml version="1.0" encoding="UTF-8" standalone="no"?><!DOCTYPE svg PUBLIC "-//W3C//DTD SVG 1.1//EN" "http://www.w3.org/Graphics/SVG/1.1/DTD/svg11.dtd"><svg width="100%" height="100%" viewBox="0 0 285 285" version="1.1" xmlns="http://www.w3.org/2000/svg" xmlns:xlink="http://www.w3.org/1999/xlink" xml:space="preserve" xmlns:serif="http://www.serif.com/" style="fill-rule:evenodd;clip-rule:evenodd;stroke-linejoin:round;stroke-miterlimit:1.41421;"><circle cx="142.5" cy="142.5" r="142.5" style="fill:#6c757d;"/><path d="M142.5,58.694c-7.461,18.292 -11.992,30.273 -20.297,48.021c5.091,5.398 11.351,11.662 21.504,18.762c-10.915,-4.491 -18.356,-8.988 -23.918,-13.668c-10.631,22.182 -27.298,53.769 -61.095,114.497c26.556,-15.331 47.146,-24.791 66.332,-28.4c-0.822,-3.538 -1.259,-7.383 -1.228,-11.376l0.021,-0.838c0.422,-17.018 9.276,-30.105 19.765,-29.217c10.486,0.888 18.652,15.41 18.231,32.43c-0.082,3.206 -0.453,6.285 -1.085,9.145c18.98,3.714 39.373,13.129 65.576,28.256c-5.167,-9.512 -9.795,-18.084 -14.2,-26.252c-6.938,-5.377 -14.171,-12.372 -28.931,-19.949c10.145,2.638 17.416,5.686 23.078,9.085c-44.779,-83.373 -48.398,-94.459 -63.753,-130.496l0,0l0,0Z" style="fill:#fff;fill-rule:nonzero;"/></svg>