<?xml version="1.0" encoding="UTF-8" standalone="no"?><!DOCTYPE svg PUBLIC "-//W3C//DTD SVG 1.1//EN" "http://www.w3.org/Graphics/SVG/1.1/DTD/svg11.dtd"><svg width="100%" height="100%" viewBox="0 0 285 285" version="1.1" xmlns="http://www.w3.org/2000/svg" xmlns:xlink="http://www.w3.org/1999/xlink" xml:space="preserve" xmlns:serif="http://www.serif.com/" style="fill-rule:evenodd;clip-rule:evenodd;stroke-linejoin:round;stroke-miterlimit:1.41421;"><circle cx="142.5" cy="142.5" r="142.5" style="fill:#6c757d;"/><path d="M156.217,147.459c-2.898,0.039 0.544,1.489 4.328,2.073c1.049,-0.819 1.992,-1.641 2.837,-2.444c-2.352,0.576 -4.749,0.59 -7.165,0.371" style="fill:#fff;fill-rule:nonzero;"/><path d="M171.764,143.582c1.732,-2.383 2.988,-4.99 3.432,-7.685c-0.389,1.92 -1.427,3.578 -2.412,5.331c-5.417,3.411 -0.512,-2.025 -0.004,-4.094c-5.822,7.336 -0.803,4.398 -1.016,6.448" style="fill:#fff;fill-rule:nonzero;"/><path d="M177.51,128.642c0.353,-5.219 -1.026,-3.567 -1.489,-1.579c0.539,0.283 0.967,3.681 1.489,1.579" style="fill:#fff;fill-rule:nonzero;"/><path d="M145.225,57.317c1.547,0.275 3.343,0.488 3.085,0.859c1.699,-0.374 2.081,-0.712 -3.085,-0.859" style="fill:#fff;fill-rule:nonzero;"/><path d="M148.312,58.176l-1.088,0.227l1.014,-0.093l0.074,-0.134" style="fill:#fff;fill-rule:nonzero;"/><path d="M196.54,130.62c0.175,4.685 -1.367,6.962 -2.761,10.988l-2.508,1.247c-2.05,3.983 0.204,2.529 -1.264,5.696c-3.204,2.845 -9.708,8.899 -11.791,9.454c-1.523,-0.033 1.03,-1.796 1.363,-2.485c-4.284,2.94 -3.438,4.414 -9.991,6.204l-0.19,-0.428c-16.154,7.602 -38.596,-7.461 -38.301,-28.01c-0.171,1.304 -0.491,0.978 -0.848,1.501c-0.833,-10.571 4.884,-21.188 14.526,-25.53c9.431,-4.666 20.486,-2.754 27.237,3.547c-3.708,-4.86 -11.095,-10.013 -19.843,-9.536c-8.573,0.14 -16.596,5.587 -19.272,11.504c-4.391,2.764 -4.903,10.658 -6.815,12.105c-2.577,18.928 4.842,27.102 17.395,36.722c1.971,1.331 0.555,1.534 0.819,2.547c-4.17,-1.951 -7.986,-4.899 -11.128,-8.508c1.668,2.438 3.466,4.808 5.791,6.669c-3.935,-1.328 -9.189,-9.527 -10.719,-9.861c6.778,12.136 27.496,21.284 38.35,16.744c-5.023,0.186 -11.401,0.103 -17.041,-1.982c-2.375,-1.22 -5.593,-3.743 -5.017,-4.214c14.809,5.529 30.102,4.185 42.913,-6.084c3.262,-2.54 6.822,-6.859 7.852,-6.917c-1.549,2.331 0.266,1.121 -0.925,3.178c3.243,-5.238 -1.414,-2.133 3.355,-9.045l1.761,2.425c-0.659,-4.352 5.401,-9.631 4.784,-16.508c1.391,-2.102 1.55,2.265 0.076,7.102c2.046,-5.366 0.541,-6.229 1.064,-10.658c0.565,1.489 1.315,3.07 1.697,4.642c-1.334,-5.187 1.364,-8.732 2.035,-11.748c-0.664,-0.291 -2.058,2.292 -2.38,-3.832c0.049,-2.661 0.743,-1.394 1.009,-2.05c-0.52,-0.3 -1.891,-2.34 -2.723,-6.252c0.599,-0.921 1.613,2.383 2.436,2.517c-0.53,-3.108 -1.439,-5.48 -1.478,-7.867c-2.405,-5.023 -0.852,0.671 -2.799,-2.157c-2.559,-7.978 2.122,-1.852 2.44,-5.475c3.875,5.615 6.084,14.322 7.102,17.927c-0.776,-4.396 -2.027,-8.657 -3.557,-12.778c1.181,0.499 -1.899,-9.043 1.534,-2.724c-3.663,-13.469 -15.666,-26.055 -26.71,-31.958c1.348,1.235 3.053,2.787 2.444,3.031c-5.496,-3.268 -4.53,-3.525 -5.318,-4.906c-4.47,-1.821 -4.769,0.149 -7.726,0.004c-8.436,-4.476 -10.061,-4.001 -17.824,-6.801l0.353,1.652c-5.587,-1.862 -6.51,0.702 -12.547,0.004c-0.367,-0.285 1.935,-1.04 3.832,-1.313c-5.403,0.713 -5.151,-1.067 -10.437,0.196c1.301,-0.914 2.682,-1.521 4.07,-2.296c-4.404,0.267 -10.519,2.563 -8.632,0.473c-7.185,3.207 -19.947,7.708 -27.109,14.424l-0.225,-1.505c-3.281,3.939 -14.31,11.764 -15.188,16.87l-0.879,0.204c-1.705,2.891 -2.812,6.167 -4.165,9.14c-2.233,3.806 -3.274,1.466 -2.956,2.063c-4.392,8.905 -6.578,16.387 -8.461,22.527c1.342,2.007 0.033,12.085 0.539,20.151c-2.203,39.841 27.961,78.52 60.932,87.448c4.833,1.732 12.018,1.67 18.131,1.841c-7.21,-2.064 -8.141,-1.092 -15.169,-3.542c-5.068,-2.389 -6.177,-5.113 -9.768,-8.23l1.421,2.512c-7.04,-2.492 -4.094,-3.084 -9.822,-4.897l1.518,-1.98c-2.282,-0.175 -6.045,-3.844 -7.073,-5.882l-2.497,0.099c-2.998,-3.696 -4.598,-6.367 -4.48,-8.436l-0.807,1.439c-0.913,-1.569 -11.036,-13.882 -5.785,-11.015c-0.975,-0.888 -2.273,-1.449 -3.679,-4.007l1.069,-1.22c-2.523,-3.252 -4.65,-7.419 -4.488,-8.808c1.348,1.819 2.283,2.16 3.21,2.473c-6.382,-15.833 -6.741,-0.871 -11.572,-16.116l1.02,-0.081c-0.781,-1.185 -1.26,-2.463 -1.889,-3.722l0.447,-4.431c-4.593,-5.306 -1.284,-22.583 -0.619,-32.056c0.456,-3.852 3.834,-7.953 6.4,-14.386l-1.564,-0.268c2.991,-5.212 17.07,-20.942 23.594,-20.135c3.159,-3.968 -0.628,-0.016 -1.247,-1.013c6.941,-7.181 9.122,-5.073 13.806,-6.366c5.048,-2.996 -4.335,1.171 -1.942,-1.143c8.733,-2.228 6.187,-5.069 17.576,-6.199c1.203,0.682 -2.787,1.055 -3.787,1.941c7.272,-3.561 23.017,-2.748 33.249,1.974c11.862,5.548 25.199,21.941 25.726,37.364l0.6,0.161c-0.303,6.132 0.938,13.224 -1.216,19.736l1.456,-3.085" style="fill:#fff;fill-rule:nonzero;"/><path d="M124.585,151.434l-0.409,2.031c1.906,2.589 3.419,5.393 5.849,7.41c-1.75,-3.411 -3.047,-4.821 -5.44,-9.441" style="fill:#fff;fill-rule:nonzero;"/><path d="M129.086,151.26c-1.009,-1.117 -1.602,-2.459 -2.273,-3.793c0.64,2.348 1.951,4.367 3.167,6.422l-0.894,-2.629" style="fill:#fff;fill-rule:nonzero;"/><path d="M208.76,133.942l-0.425,1.07c-0.78,5.543 -2.469,11.027 -5.052,16.114c2.855,-5.366 4.695,-11.236 5.477,-17.184" style="fill:#fff;fill-rule:nonzero;"/><path d="M145.801,55.926c1.956,-0.715 4.813,-0.393 6.896,-0.865c-2.711,0.227 -5.409,0.363 -8.072,0.702l1.176,0.163" style="fill:#fff;fill-rule:nonzero;"/><path d="M77.012,92.505c0.452,4.177 -3.141,5.801 0.795,3.043c2.114,-4.759 -0.822,-1.313 -0.795,-3.043" style="fill:#fff;fill-rule:nonzero;"/><path d="M72.381,111.848c0.91,-2.787 1.073,-4.459 1.42,-6.074c-2.508,3.207 -1.156,3.892 -1.42,6.074" style="fill:#fff;fill-rule:nonzero;"/></svg>