<?xml version="1.0" encoding="UTF-8" standalone="no"?><!DOCTYPE svg PUBLIC "-//W3C//DTD SVG 1.1//EN" "http://www.w3.org/Graphics/SVG/1.1/DTD/svg11.dtd"><svg width="100%" height="100%" viewBox="0 0 512 512" version="1.1" xmlns="http://www.w3.org/2000/svg" xmlns:xlink="http://www.w3.org/1999/xlink" xml:space="preserve" xmlns:serif="http://www.serif.com/" style="fill-rule:evenodd;clip-rule:evenodd;stroke-linejoin:round;stroke-miterlimit:1.41421;"><circle cx="256" cy="256" r="256" style="fill:#6c757d;"/><g id="g4083"><g id="g7898"><path id="path123" d="M387.99,127.541c14.321,14.314 -25.38,77.239 -32.092,83.951c-6.712,6.702 -23.76,0.536 -38.077,-13.782c-14.322,-14.315 -20.491,-31.366 -13.779,-38.077c6.712,-6.715 69.63,-46.414 83.948,-32.092Z" style="fill:#fff;fill-rule:nonzero;"/><path id="path125" d="M187.165,142.686c-21.864,-12.406 -52.971,-26.204 -62.868,-16.308c-10.031,10.025 4.277,41.835 16.809,63.739c11.153,-19.395 27.025,-35.722 46.059,-47.431Z" style="fill:#fff;fill-rule:nonzero;"/><path id="path127" d="M366.15,206.555c2.013,6.829 1.647,12.472 -1.615,15.728c-7.629,7.629 -28.23,-0.489 -46.798,-18.166c-1.3,-1.162 -2.582,-2.368 -3.845,-3.634c-6.712,-6.719 -11.94,-13.872 -15.279,-20.454c-6.504,-11.665 -8.132,-21.974 -3.215,-26.887c2.679,-2.679 6.966,-3.41 12.194,-2.465c3.413,-2.154 7.435,-4.558 11.85,-7.02c-17.949,-9.361 -38.352,-14.649 -60.001,-14.649c-71.794,0 -130,58.195 -130,129.999c0,71.79 58.206,129.993 130,129.993c71.797,0 130.002,-58.203 130.002,-129.993c0,-23.187 -6.085,-44.93 -16.719,-63.779c-2.301,4.19 -4.535,8.031 -6.574,11.327Z" style="fill:#fff;fill-rule:nonzero;"/></g></g></svg>