<?xml version="1.0" encoding="UTF-8" standalone="no"?><!DOCTYPE svg PUBLIC "-//W3C//DTD SVG 1.1//EN" "http://www.w3.org/Graphics/SVG/1.1/DTD/svg11.dtd"><svg width="100%" height="100%" viewBox="0 0 285 285" version="1.1" xmlns="http://www.w3.org/2000/svg" xmlns:xlink="http://www.w3.org/1999/xlink" xml:space="preserve" xmlns:serif="http://www.serif.com/" style="fill-rule:evenodd;clip-rule:evenodd;stroke-linejoin:round;stroke-miterlimit:1.41421;"><circle cx="142.5" cy="142.5" r="141.732" style="fill:#007bff;"/><g id="U"><circle cx="57.753" cy="141.821" r="16.444" style="fill:#fff;"/><path d="M101.878,201.263c-14.392,-9.616 -25.098,-24.315 -29.545,-41.533c5.196,-4.233 8.514,-10.681 8.514,-17.909c0,-7.227 -3.318,-13.675 -8.514,-17.909c4.447,-17.217 15.153,-31.917 29.545,-41.532l12.023,20.14c-12.35,8.692 -20.427,23.047 -20.427,39.301c0,16.254 8.077,30.609 20.427,39.301l-12.023,20.141Z" style="fill:#fff;fill-rule:nonzero;"/></g><g id="U1" serif:id="U"><path d="M200.229,75.457c-4.538,7.86 -14.604,10.557 -22.464,6.019c-7.86,-4.538 -10.557,-14.603 -6.019,-22.463c4.538,-7.86 14.603,-10.557 22.463,-6.019c7.86,4.538 10.558,14.603 6.02,22.463Z" style="fill:#fff;"/><path d="M112.447,75.727c15.523,-7.656 33.607,-9.578 50.741,-4.82c1.068,6.616 4.993,12.714 11.252,16.328c6.26,3.614 13.503,3.964 19.767,1.581c12.687,12.46 20.065,29.082 21.196,46.353l-23.454,0.342c-1.352,-15.042 -9.746,-29.214 -23.822,-37.341c-14.077,-8.127 -30.547,-8.31 -44.25,-1.96l-11.43,-20.483Z" style="fill:#fff;fill-rule:nonzero;"/></g><g id="U2" serif:id="U"><path d="M171.262,224.55c-4.538,-7.86 -1.841,-17.925 6.019,-22.463c7.86,-4.538 17.925,-1.841 22.463,6.019c4.538,7.86 1.841,17.925 -6.019,22.463c-7.86,4.538 -17.925,1.841 -22.463,-6.019Z" style="fill:#fff;"/><path d="M214.918,148.394c-1.131,17.271 -8.508,33.893 -21.196,46.353c-6.264,-2.383 -13.507,-2.033 -19.766,1.581c-6.259,3.614 -10.184,9.712 -11.253,16.328c-17.134,4.758 -35.217,2.836 -50.74,-4.82l11.43,-20.483c13.703,6.35 30.173,6.167 44.249,-1.96c14.077,-8.127 22.47,-22.299 23.823,-37.341l23.453,0.342Z" style="fill:#fff;fill-rule:nonzero;"/></g></svg>